<?xml version="1.0" standalone="no"?>
<!DOCTYPE svg PUBLIC "-//W3C//DTD SVG 20010904//EN"
 "http://www.w3.org/TR/2001/REC-SVG-20010904/DTD/svg10.dtd">
<svg version="1.0" xmlns="http://www.w3.org/2000/svg"
 width="900.000000pt" height="900.000000pt" viewBox="0 0 900.000000 900.000000"
 preserveAspectRatio="xMidYMid meet">
<metadata>
Created by potrace 1.11, written by Peter Selinger 2001-2013
</metadata>
<g transform="translate(0.000000,900.000000) scale(0.100000,-0.100000)"
fill="#000000" stroke="none">
<path d="M3644 5632 c-1 -2317 -3 -2526 -29 -2672 -3 -14 -8 -50 -10 -80 -14
-140 -78 -395 -139 -555 -36 -92 -125 -261 -177 -333 -55 -75 -153 -171 -220
-216 -64 -42 -165 -81 -234 -91 -58 -7 -179 -8 -215 0 -14 3 -41 8 -60 11 -55
9 -155 49 -216 85 -142 86 -278 265 -354 465 -27 71 -69 208 -76 248 -3 16 -7
32 -9 35 -2 4 -6 26 -10 51 -4 25 -8 47 -10 50 -1 3 -5 25 -9 50 -28 219 -36
330 -40 505 l-2 100 -68 3 -68 3 7 -183 c3 -101 8 -196 9 -213 2 -16 7 -61 11
-100 7 -73 9 -90 20 -165 9 -55 12 -71 25 -135 6 -27 12 -59 14 -70 11 -57 40
-160 68 -240 169 -492 471 -744 888 -743 262 0 476 127 660 391 22 32 40 60
40 63 0 2 10 21 23 42 61 99 151 324 196 492 22 84 67 309 76 385 3 28 8 64
11 80 2 17 6 55 9 85 2 30 4 55 5 55 9 0 12 459 13 2307 2 1863 5 2315 14
2189 1 -11 22 -100 47 -199 25 -99 47 -191 50 -206 2 -14 7 -29 10 -34 3 -5 7
-19 10 -33 3 -13 8 -35 11 -49 3 -14 8 -38 11 -55 3 -16 9 -41 14 -55 9 -27
19 -69 26 -110 3 -14 9 -36 13 -50 7 -19 83 -324 117 -472 3 -13 9 -39 14 -58
9 -40 153 -615 176 -705 8 -33 17 -69 19 -80 3 -11 31 -128 64 -260 102 -414
132 -534 136 -552 3 -18 18 -77 90 -363 20 -80 38 -152 40 -160 2 -8 29 -118
60 -244 32 -127 58 -235 60 -240 1 -6 5 -22 8 -36 15 -56 138 -556 142 -575 6
-30 5 -24 140 -570 70 -280 128 -517 130 -525 2 -8 11 -44 20 -80 9 -36 18
-69 19 -75 1 -5 13 -54 26 -107 l24 -98 52 0 53 0 12 43 c12 44 78 311 84 337
2 8 15 62 30 120 14 58 28 114 30 125 3 11 7 29 9 40 3 11 12 48 21 82 9 35
18 71 20 80 2 10 27 110 55 223 28 113 53 212 55 220 2 8 13 53 24 100 12 47
23 92 25 100 2 8 27 110 56 225 28 116 54 221 56 233 3 13 12 49 20 80 8 32
17 68 20 82 3 14 8 34 11 45 4 11 8 25 9 30 2 14 52 217 218 885 201 815 297
1202 301 1220 2 8 13 53 25 100 11 47 23 96 26 109 3 14 7 28 9 31 2 4 6 20 9
36 3 16 37 157 77 314 39 157 72 292 74 300 2 8 15 62 29 120 15 58 29 116 32
129 3 14 7 28 9 31 2 4 7 22 10 40 3 18 31 132 61 254 59 232 66 263 67 283 0
7 3 11 6 8 3 -3 5 -1359 6 -3013 l0 -3007 66 -3 66 -3 0 3201 0 3200 -97 0
-97 0 -12 -42 c-8 -32 -135 -545 -166 -678 -2 -8 -14 -53 -25 -100 -12 -47
-23 -93 -25 -103 -2 -11 -23 -94 -45 -185 -40 -158 -187 -760 -195 -792 -2 -8
-35 -145 -75 -305 -39 -159 -73 -297 -75 -305 -14 -65 -126 -521 -134 -545 -5
-16 -12 -43 -15 -60 -11 -56 -15 -70 -30 -127 -9 -32 -18 -71 -21 -87 -3 -17
-9 -41 -15 -55 -5 -15 -7 -26 -5 -26 2 0 0 -11 -5 -25 -5 -14 -12 -36 -14 -48
-2 -12 -14 -60 -26 -107 -12 -47 -23 -92 -25 -100 -4 -20 -56 -233 -162 -660
-46 -190 -87 -356 -89 -370 -3 -14 -7 -32 -10 -40 -4 -8 -8 -24 -10 -35 -3
-19 -17 -78 -125 -510 -21 -88 -41 -169 -43 -180 -2 -11 -19 -76 -36 -145 -18
-69 -33 -129 -34 -135 -1 -5 -17 -73 -36 -149 l-33 -140 -23 95 c-13 52 -64
261 -114 464 -51 204 -94 379 -96 390 -3 11 -9 38 -14 60 -5 22 -14 60 -20 85
-7 25 -13 52 -15 60 -2 8 -11 44 -20 80 -9 36 -20 83 -25 105 -5 22 -37 150
-70 285 -34 135 -64 256 -66 270 -3 14 -21 86 -40 160 -19 74 -36 144 -38 155
-2 11 -11 47 -19 80 -9 33 -18 71 -21 85 -2 14 -27 117 -56 230 -28 113 -53
212 -55 221 -7 33 -36 156 -45 189 -10 36 -67 269 -75 305 -7 32 -11 49 -74
305 -34 135 -63 254 -66 265 -9 42 -14 62 -30 125 -17 63 -20 78 -29 120 -3
12 -19 78 -36 148 -17 70 -33 134 -35 142 -2 8 -20 80 -40 160 -20 80 -39 159
-41 175 -3 17 -9 41 -14 55 -7 22 -15 52 -25 100 -2 8 -29 119 -60 245 -45
185 -93 381 -130 535 -2 8 -22 89 -44 180 -23 91 -41 168 -41 173 0 4 -44 7
-97 7 l-98 0 -1 -2308z"/>
</g>
</svg>
